<mxfile host="drawio-plugin" modified="2021-05-11T23:21:36.206Z" agent="5.0 (Windows NT 6.2; Win64; x64) AppleWebKit/537.36 (KHTML, like Gecko) Chrome/87.0.4280.141 Safari/537.36" etag="gnYITVqrzB5qTSd2iGGs" version="14.6.6" type="embed" pages="2"><diagram id="DA_a8IqXFuFWrUNnVX_Q" name="General Overview"><mxGraphModel dx="1125" dy="721" grid="1" gridSize="10" guides="1" tooltips="1" connect="1" arrows="1" fold="1" page="1" pageScale="1" pageWidth="850" pageHeight="1100" math="0" shadow="0"><root><mxCell id="0"/><mxCell id="1" parent="0"/><mxCell id="rToRF3a6WYgaRBfIFZam-1" value="&lt;h1&gt;Weakling! the game architecture overview&lt;br&gt;&lt;/h1&gt;&lt;p&gt;This diagram shows top level view of systems used in development of the game.&lt;br&gt;&lt;/p&gt;" style="text;html=1;strokeColor=none;fillColor=none;spacing=5;spacingTop=-20;whiteSpace=wrap;overflow=hidden;rounded=0;" parent="1" vertex="1"><mxGeometry x="10" y="10" width="820" height="70" as="geometry"/></mxCell><mxCell id="rToRF3a6WYgaRBfIFZam-18" style="edgeStyle=orthogonalEdgeStyle;rounded=0;orthogonalLoop=1;jettySize=auto;html=1;entryX=0.5;entryY=0;entryDx=0;entryDy=0;" parent="1" source="rToRF3a6WYgaRBfIFZam-3" target="rToRF3a6WYgaRBfIFZam-4" edge="1"><mxGeometry relative="1" as="geometry"/></mxCell><mxCell id="rToRF3a6WYgaRBfIFZam-3" value="&lt;h1&gt;Source code&lt;br&gt;&lt;/h1&gt;&lt;p&gt;[stored under /src]&lt;br&gt;&lt;/p&gt;&lt;p&gt;Written with TypeScript, Phaser 3 framework. &lt;br&gt;&lt;/p&gt;&lt;p&gt;It also contains all actually used images, sounds, and other assets under /src/assets.&lt;br&gt;&lt;/p&gt;" style="text;html=1;spacing=5;spacingTop=-20;whiteSpace=wrap;overflow=hidden;rounded=0;strokeColor=#000000;" parent="1" vertex="1"><mxGeometry x="40" y="120" width="200" height="200" as="geometry"/></mxCell><mxCell id="rToRF3a6WYgaRBfIFZam-19" style="edgeStyle=orthogonalEdgeStyle;rounded=0;orthogonalLoop=1;jettySize=auto;html=1;entryX=0.5;entryY=0;entryDx=0;entryDy=0;" parent="1" source="rToRF3a6WYgaRBfIFZam-4" target="rToRF3a6WYgaRBfIFZam-9" edge="1"><mxGeometry relative="1" as="geometry"/></mxCell><mxCell id="rToRF3a6WYgaRBfIFZam-4" value="&lt;h1&gt;Webpack&lt;/h1&gt;&lt;p&gt;[webpack.config.js]&lt;/p&gt;&lt;p&gt;Bundles Source Code, Runs FreeTexturePacker script for game Icons, copies other assets and plugins without bundling them.&lt;br&gt;&lt;/p&gt;" style="text;html=1;fillColor=none;spacing=5;spacingTop=-20;whiteSpace=wrap;overflow=hidden;rounded=0;strokeColor=#000000;" parent="1" vertex="1"><mxGeometry x="40" y="360" width="200" height="200" as="geometry"/></mxCell><mxCell id="rToRF3a6WYgaRBfIFZam-20" value="&lt;div&gt;GitHub automatically host files &lt;br&gt;&lt;/div&gt;&lt;div&gt;from the repo's /dist folder&lt;br&gt;&lt;/div&gt;" style="edgeStyle=orthogonalEdgeStyle;rounded=0;orthogonalLoop=1;jettySize=auto;html=1;entryX=0.16;entryY=0.55;entryDx=0;entryDy=0;entryPerimeter=0;" parent="1" source="rToRF3a6WYgaRBfIFZam-9" target="rToRF3a6WYgaRBfIFZam-11" edge="1"><mxGeometry relative="1" as="geometry"/></mxCell><mxCell id="rToRF3a6WYgaRBfIFZam-9" value="&lt;h1&gt;Distribution files&lt;br&gt;&lt;/h1&gt;&lt;p&gt;[stored under /dist]&lt;br&gt;&lt;/p&gt;&lt;p&gt;Files generated by Webpack to be put on Web Server for future hosting&lt;br&gt;&lt;/p&gt;" style="text;html=1;fillColor=none;spacing=5;spacingTop=-20;whiteSpace=wrap;overflow=hidden;rounded=0;strokeColor=#000000;" parent="1" vertex="1"><mxGeometry x="40" y="600" width="200" height="120" as="geometry"/></mxCell><mxCell id="rToRF3a6WYgaRBfIFZam-11" value="GitHub Pages" style="ellipse;shape=cloud;whiteSpace=wrap;html=1;strokeColor=#000000;fillColor=none;" parent="1" vertex="1"><mxGeometry x="475" y="590" width="130" height="130" as="geometry"/></mxCell><mxCell id="rToRF3a6WYgaRBfIFZam-12" value="Supporting tools and their corresponding projects" style="swimlane;strokeColor=#000000;fillColor=none;" parent="1" vertex="1"><mxGeometry x="280" y="120" width="520" height="440" as="geometry"><mxRectangle x="280" y="120" width="130" height="23" as="alternateBounds"/></mxGeometry></mxCell><mxCell id="rToRF3a6WYgaRBfIFZam-13" value="&lt;div&gt;[confusingly stored under /assets for legacy reasons,&lt;/div&gt;&lt;div&gt; not to be mixed with /src/assets where actual game assets are located]&lt;/div&gt;" style="text;html=1;align=center;verticalAlign=middle;resizable=0;points=[];autosize=1;strokeColor=none;" parent="rToRF3a6WYgaRBfIFZam-12" vertex="1"><mxGeometry x="65" y="30" width="390" height="30" as="geometry"/></mxCell><mxCell id="rToRF3a6WYgaRBfIFZam-5" value="&lt;h1&gt;Free Texture Packer&lt;br&gt;&lt;/h1&gt;&lt;p&gt;[stored under /assets/ftp-project]&lt;br&gt;&lt;/p&gt;&lt;p&gt;Used to create spritesheets out of sets of single images, manually and automatically by Webpack&lt;br&gt;&lt;/p&gt;" style="text;html=1;fillColor=none;spacing=5;spacingTop=-20;whiteSpace=wrap;overflow=hidden;rounded=0;strokeColor=#000000;" parent="rToRF3a6WYgaRBfIFZam-12" vertex="1"><mxGeometry x="20" y="70" width="240" height="120" as="geometry"/></mxCell><mxCell id="rToRF3a6WYgaRBfIFZam-6" value="&lt;h1&gt;Tiled&lt;/h1&gt;&lt;p&gt;[stored under /assets/tiled-project]&lt;br&gt;&lt;/p&gt;&lt;p&gt;Free tilemap editor where location maps are getting created&lt;br&gt;&lt;/p&gt;" style="text;html=1;fillColor=none;spacing=5;spacingTop=-20;whiteSpace=wrap;overflow=hidden;rounded=0;strokeColor=#000000;" parent="rToRF3a6WYgaRBfIFZam-12" vertex="1"><mxGeometry x="290" y="70" width="190" height="120" as="geometry"/></mxCell><mxCell id="rToRF3a6WYgaRBfIFZam-8" value="&lt;h1&gt;Stash&lt;/h1&gt;&lt;p&gt;[stored under /assets/stash]&lt;br&gt;&lt;/p&gt;&lt;p&gt;Just a folder where raw, unprocessed and\or unused game assets are stored.&lt;br&gt;&lt;/p&gt;" style="text;html=1;fillColor=none;spacing=5;spacingTop=-20;whiteSpace=wrap;overflow=hidden;rounded=0;strokeColor=#000000;" parent="rToRF3a6WYgaRBfIFZam-12" vertex="1"><mxGeometry x="290" y="240" width="190" height="120" as="geometry"/></mxCell><mxCell id="rToRF3a6WYgaRBfIFZam-15" value="&lt;h1&gt;Aseprite&lt;/h1&gt;&lt;p&gt;[stored under /assets/aseprite-project]&lt;/p&gt;&lt;p&gt;Files for Aseprite images and animations editor&lt;br&gt;&lt;/p&gt;" style="text;html=1;fillColor=none;spacing=5;spacingTop=-20;whiteSpace=wrap;overflow=hidden;rounded=0;strokeColor=#000000;" parent="rToRF3a6WYgaRBfIFZam-12" vertex="1"><mxGeometry x="20" y="240" width="240" height="120" as="geometry"/></mxCell><mxCell id="rToRF3a6WYgaRBfIFZam-17" style="edgeStyle=orthogonalEdgeStyle;rounded=0;orthogonalLoop=1;jettySize=auto;html=1;exitX=0;exitY=0.5;exitDx=0;exitDy=0;entryX=1;entryY=0.5;entryDx=0;entryDy=0;" parent="1" source="rToRF3a6WYgaRBfIFZam-5" target="rToRF3a6WYgaRBfIFZam-4" edge="1"><mxGeometry relative="1" as="geometry"/></mxCell></root></mxGraphModel></diagram><diagram id="CkU-o-95htZSAX7PNupb" name="Source code structure"><mxGraphModel dx="1125" dy="721" grid="1" gridSize="10" guides="1" tooltips="1" connect="1" arrows="1" fold="1" page="1" pageScale="1" pageWidth="850" pageHeight="1100" math="0" shadow="0"><root><mxCell id="wimC9kOxdClsZD7-3ROx-0"/><mxCell id="wimC9kOxdClsZD7-3ROx-1" parent="wimC9kOxdClsZD7-3ROx-0"/><mxCell id="Ylaeckr3D_-gEleV9Hk6-1" value="&lt;h1&gt;Source code structure&lt;/h1&gt;&lt;p&gt;This diagram shows how different types of entities are stored, used and communicate with each other&lt;/p&gt;" style="text;html=1;strokeColor=none;fillColor=none;spacing=5;spacingTop=-20;whiteSpace=wrap;overflow=hidden;rounded=0;" parent="wimC9kOxdClsZD7-3ROx-1" vertex="1"><mxGeometry x="10" y="10" width="830" height="70" as="geometry"/></mxCell><mxCell id="0ktQMvhlBw8mAWOtMOWZ-0" value="&lt;h1&gt;&lt;span&gt;Assets&lt;/span&gt;&lt;/h1&gt;&lt;h1&gt;&lt;span style=&quot;font-size: 12px ; font-weight: normal&quot;&gt;[Stored under /src/assets]&lt;/span&gt;&lt;br&gt;&lt;/h1&gt;&lt;div&gt;&lt;span style=&quot;font-size: 12px ; font-weight: normal&quot;&gt;There are five types of assets currently used in the game:&lt;/span&gt;&lt;/div&gt;&lt;div&gt;&lt;span style=&quot;font-size: 12px ; font-weight: normal&quot;&gt;&lt;br&gt;&lt;/span&gt;&lt;/div&gt;&lt;div&gt;&lt;span style=&quot;font-size: 12px ; font-weight: normal&quot;&gt;Audio assets: theme songs and sound effects&lt;/span&gt;&lt;/div&gt;&lt;div&gt;&lt;span style=&quot;font-size: 12px ; font-weight: normal&quot;&gt;&lt;br&gt;&lt;/span&gt;&lt;/div&gt;&lt;div&gt;Bitmap fonts: Bitmap fonts are just letters of specific font type stored as a single image. Using real fonts in phaser is costly, so bitmap fonts should be used in performance-critical parts of the application.&lt;/div&gt;&lt;div&gt;&lt;br&gt;&lt;/div&gt;&lt;div&gt;Exported Maps: Tiled maps, after the work on them is done, have to be exported as JSON and stored here for future use&lt;/div&gt;&lt;div&gt;&lt;br&gt;&lt;/div&gt;&lt;div&gt;Images: regular images for the game&lt;/div&gt;&lt;div&gt;&lt;br&gt;&lt;/div&gt;&lt;div&gt;Images Extruded: when you work with spritesheets you can notice a black lines apperaing on your screen where they are not supposed to be - this is Tile Bleeding. In order to avoid tile bleeding, images, especially spritesheets, should be extruded. Read more about it here:&amp;nbsp;https://github.com/sporadic-labs/tile-extruder&lt;/div&gt;&lt;div&gt;&lt;span style=&quot;font-size: 12px ; font-weight: normal&quot;&gt;&lt;br&gt;&lt;/span&gt;&lt;/div&gt;" style="text;html=1;fillColor=none;spacing=5;spacingTop=-20;whiteSpace=wrap;overflow=hidden;rounded=0;strokeColor=#f0f0f0;" parent="wimC9kOxdClsZD7-3ROx-1" vertex="1"><mxGeometry x="10" y="90" width="190" height="560" as="geometry"/></mxCell></root></mxGraphModel></diagram></mxfile>